<svg width="20" height="20" viewBox="0 0 20 20" fill="none" xmlns="http://www.w3.org/2000/svg">
<g clip-path="url(#clip0_68509_76109)">
<path d="M17.0833 5H12.9167C12.2267 5 11.6667 5.56 11.6667 6.25C11.6667 6.94 12.2267 7.5 12.9167 7.5H15.7325L10.8333 12.3992L7.40083 8.96667C6.53666 8.1025 5.13 8.1025 4.26583 8.96667L0.36583 12.8658C-0.122503 13.3542 -0.122503 14.145 0.36583 14.6333C0.854164 15.1217 1.645 15.1217 2.13333 14.6333L5.8325 10.9342L9.265 14.3667C9.6975 14.7992 10.2642 15.015 10.8325 15.015C11.4008 15.015 11.9675 14.7983 12.4 14.3667L17.4992 9.2675V12.0833C17.4992 12.7733 18.0592 13.3333 18.7492 13.3333C19.4392 13.3333 19.9992 12.7733 19.9992 12.0833V7.91667C19.9992 6.30833 18.6917 5 17.0833 5Z" fill="#00A9CE"/>
</g>
<defs>
<clipPath id="clip0_68509_76109">
<rect width="20" height="20" fill="white"/>
</clipPath>
</defs>
</svg>
